<?xml version="1.0" encoding="UTF-8" standalone="no"?>
<!-- Created with Inkscape (http://www.inkscape.org/) -->

<svg
   width="167mm"
   height="46mm"
   viewBox="0 0 167 46"
   version="1.1"
   id="svg5"
   xmlns="http://www.w3.org/2000/svg"
   xmlns:svg="http://www.w3.org/2000/svg">
  <defs
     id="defs2" />
  <g
     id="layer1"
     transform="translate(-41.038169,-0.32061069)">
    <text
       xml:space="preserve"
       style="font-size:50.8px;white-space:pre;inline-size:155.899;display:inline;fill:#000000;stroke-width:0.264583"
       x="33.985073"
       y="156.25746"
       id="text113"
       transform="matrix(1.4974007,0,0,1.5642762,-50.256425,-133.08952)"><tspan
         x="33.985073"
         y="156.25746"
         id="tspan197"><tspan
           style="font-family:'Palatino Linotype';-inkscape-font-specification:'Palatino Linotype'"
           id="tspan195">AirJet</tspan></tspan></text>
    <ellipse
       id="path214"
       style="fill:#000000;stroke:#000000;stroke-width:0.404936"
       cx="391.70584"
       cy="232.68843"
       rx="0.073678277"
       ry="0.076968841" />
    <path
       style="fill:#000000;stroke-width:0.345956"
       id="path218"
       d="m 119.1858,40.401029 c -7.24139,-2.91194 -14.57777,-5.35629 -21.90397,-7.84336 -4.458847,-1.43555 -8.785958,-3.48046 -13.18684,-5.18695 0,0 5.145979,5.33088 5.145979,5.33088 v 0 c 4.312426,1.63971 8.5716,3.5363 12.941411,4.89754 7.49655,2.48667 14.97312,5.07328 22.3388,8.20103 0,0 -5.33538,-5.39914 -5.33538,-5.39914 z" />
    <path
       style="fill:#000000;stroke-width:0.404936"
       id="path228"
       d="m 113.40157,32.556469 c -8.71526,-2.37202 -17.204029,-5.51995 -25.750073,-8.46491 -4.575359,-1.58882 -9.206782,-2.98706 -13.884264,-4.20463 0,0 6.862175,5.47548 6.862175,5.47548 v 0 c 4.547957,1.13681 9.051241,2.45482 13.495626,3.97838 8.748506,2.99092 17.433956,6.18809 26.287306,8.83412 0,0 -7.01077,-5.61844 -7.01077,-5.61844 z" />
    <path
       style="fill:#000000;stroke-width:0.404936"
       id="path230"
       d="m 110.28683,26.746859 c -6.28757,-2.49641 -12.67437,-4.70177 -18.970995,-7.17411 -6.664451,-2.68602 -13.400588,-5.14538 -20.312244,-7.03641 -3.199906,-0.92276 -6.501422,-1.25512 -9.765078,-1.81189 -0.270448,-0.0422 -0.540899,-0.0843 -0.811347,-0.12644 0,0 7.097598,5.55313 7.097598,5.55313 v 0 c 0.263609,0.0393 0.527218,0.0788 0.790828,0.11809 3.17594,0.47247 6.375697,0.80868 9.480267,1.70493 6.862915,1.87146 13.530853,4.38116 20.154087,7.02257 6.438834,2.49686 12.955614,4.77201 19.336374,7.43082 0,0 -6.99949,-5.68073 -6.99949,-5.68073 z" />
    <path
       id="path236"
       style="fill:#000000;stroke-width:0.404936"
       d="m 40.952091,1.2401077 7.119762,5.499289 c 1.221065,0.111077 0.592225,0.04912 1.886532,0.190773 2.306392,0.294327 4.603058,0.806525 6.932503,0.793004 1.935043,-0.0033 3.870932,0.0015 5.805071,0.07032 2.106231,0.100165 4.206808,0.301735 6.280186,0.716209 2.299679,0.404707 4.596261,0.838364 6.779286,1.7323163 2.551854,1.01755 4.998871,2.29006 7.563155,3.2771 4.705039,2.03353 9.274138,4.37484 13.889783,6.61564 4.546501,1.99494 9.183251,3.86196 14.037561,4.86311 l -7.08804,-5.56881 c -4.731849,-0.97021 -9.238609,-2.84514 -13.652999,-4.82511 -4.646624,-2.30593 -9.257936,-4.6973977 -14.029043,-6.7150683 -2.588732,-1.032911 -5.051411,-2.34131 -7.661426,-3.318327 -2.219323,-0.875091 -4.56865,-1.162718 -6.883755,-1.605406 -2.099838,-0.416155 -4.23042,-0.548362 -6.361434,-0.626482 -1.944246,-0.06294 -3.889595,-0.04447 -5.834476,-0.04609 -0.320555,4.15e-4 -0.642343,0.02889 -0.961839,0.0015 -0.773849,-0.0658 -1.534299,-0.24633 -2.302063,-0.366997 -1.194194,-0.187695 -2.387221,-0.354681 -3.586579,-0.501993 -1.324297,-0.138907 -0.680878,-0.07869 -1.932185,-0.185116 z" />
    <ellipse
       id="path214-9"
       style="fill:#000000;stroke:#000000;stroke-width:0.404936"
       cx="128.29414"
       cy="231.83427"
       transform="scale(-1,1)"
       rx="0.073678277"
       ry="0.076968841" />
    <path
       style="fill:#000000;stroke-width:0.345956"
       id="path218-8"
       d="m 129.29102,40.702539 c 7.24138,-2.91194 14.57777,-5.35628 21.90398,-7.84336 4.45882,-1.43554 8.78595,-3.48047 13.18682,-5.18695 0,0 -5.14595,5.33089 -5.14595,5.33089 v 0 c -4.31244,1.6397 -8.57162,3.53629 -12.94143,4.89755 -7.49655,2.48666 -14.97313,5.07326 -22.3388,8.201 0,0 5.33538,-5.39913 5.33538,-5.39913 z" />
    <path
       style="fill:#000000;stroke-width:0.404936"
       id="path228-5"
       d="m 135.07526,32.857989 c 8.71524,-2.37204 17.20402,-5.51996 25.75007,-8.46491 4.57536,-1.58884 9.20677,-2.98707 13.88426,-4.20466 0,0 -6.86217,5.4755 -6.86217,5.4755 v 0 c -4.54796,1.13682 -9.05124,2.45482 -13.49565,3.97838 -8.7485,2.99092 -17.43395,6.18809 -26.2873,8.83412 0,0 7.01079,-5.61843 7.01079,-5.61843 z" />
    <path
       style="fill:#000000;stroke-width:0.404936"
       id="path230-4"
       d="m 138.18998,27.048349 c 6.28758,-2.4964 12.67438,-4.70175 18.971,-7.17409 6.66446,-2.68602 13.4006,-5.14539 20.31224,-7.03641 3.19991,-0.92276 6.50144,-1.25513 9.7651,-1.81188 0.27043,-0.0422 0.54089,-0.0844 0.81133,-0.1264 0,0 -7.0976,5.55314 -7.0976,5.55314 v 0 c -0.2636,0.0393 -0.5272,0.0788 -0.79082,0.11809 -3.17593,0.47246 -6.37572,0.80865 -9.48027,1.70491 -6.8629,1.87145 -13.53084,4.38115 -20.1541,7.02257 -6.43882,2.49687 -12.95559,4.77199 -19.33636,7.43083 0,0 6.99948,-5.68072 6.99948,-5.68073 z" />
    <path
       id="path236-2"
       style="fill:#000000;stroke-width:0.404936"
       d="m 207.52472,1.5416147 -7.11975,5.499292 c -1.22106,0.111063 -0.59223,0.04913 -1.88653,0.190778 -2.3064,0.29432 -4.60306,0.806526 -6.9325,0.792994 -1.93505,-0.0031 -3.87094,0.0015 -5.80507,0.07039 -2.10625,0.100114 -4.20681,0.301732 -6.28019,0.716219 -2.29967,0.404693 -4.59626,0.8383566 -6.7793,1.7323013 -2.55184,1.01756 -4.99886,2.29006 -7.56314,3.2771 -4.70503,2.03353 -9.27414,4.37485 -13.88978,6.61564 -4.54653,1.99494 -9.18324,3.86197 -14.03757,4.86312 l 7.08804,-5.56881 c 4.73184,-0.97021 9.23859,-2.84515 13.65299,-4.82512 4.64664,-2.30594 9.25796,-4.69739 14.02907,-6.7150623 2.58873,-1.032907 5.0514,-2.341314 7.66141,-3.318329 2.21934,-0.875089 4.56865,-1.162712 6.88376,-1.605402 2.09983,-0.416159 4.23041,-0.548358 6.36142,-0.626476 1.94427,-0.06288 3.88961,-0.04442 5.8345,-0.04615 0.32054,4.07e-4 0.64233,0.02894 0.96184,0.0015 0.77383,-0.06585 1.5343,-0.246343 2.30205,-0.366996 1.19419,-0.187697 2.38721,-0.354684 3.58658,-0.502008 1.32429,-0.138909 0.68088,-0.07868 1.93217,-0.1851 z" />
  </g>
</svg>
