<?xml version="1.0" encoding="UTF-8" standalone="no"?>
<!-- Created with Inkscape (http://www.inkscape.org/) -->

<svg
   width="210mm"
   height="105mm"
   viewBox="0 0 210 105"
   version="1.1"
   id="svg5"
   xmlns="http://www.w3.org/2000/svg"
   xmlns:svg="http://www.w3.org/2000/svg">
  <defs
     id="defs2" />
  <g
     id="layer1">
    <text
       xml:space="preserve"
       style="font-size:50.8px;white-space:pre;inline-size:155.899;display:inline;fill:#000000;stroke-width:0.264583"
       x="33.985073"
       y="156.25746"
       id="text113" />
    <circle
       id="path214"
       style="fill:#000000;stroke:#000000;stroke-width:0.264583"
       cx="295.15298"
       cy="233.83209"
       r="0.049204119" />
    <path
       style="fill:#000000;stroke-width:0.831709"
       id="path218"
       d="m 195.37506,91.892736 c -18.08779,-6.73782 -36.41293,-12.39365 -54.71262,-18.14837 -11.13747,-3.32166 -21.94591,-8.05329 -32.93861,-12.00184 0,0 12.85381,12.33486 12.85381,12.33486 v 0 c 10.77176,3.79405 21.4105,8.18246 32.32561,11.33221 18.72522,5.75377 37.40049,11.7388 55.79875,18.975924 0,0 -13.32694,-12.492784 -13.32694,-12.492784 z" />
    <path
       style="fill:#000000;stroke-width:0.973505"
       id="path228"
       d="m 180.92696,73.741576 c -21.76929,-5.48846 -42.97292,-12.77236 -64.31956,-19.58654 -11.42848,-3.67627 -22.997059,-6.91159 -34.680661,-9.72892 0,0 17.14064,12.66948 17.14064,12.66948 v 0 c 11.360021,2.6304 22.608531,5.68009 33.709901,9.20537 21.85238,6.92056 43.54725,14.31835 65.66151,20.44086 0,0 -17.51183,-13.00025 -17.51183,-13.00025 z" />
    <path
       style="fill:#000000;stroke-width:0.973505"
       id="path230"
       d="m 173.14689,60.299006 c -15.70537,-5.77634 -31.65861,-10.87916 -47.38654,-16.59984 -16.64676,-6.21501 -33.472538,-11.90562 -50.736742,-16.28119 -7.99287,-2.135124 -16.239524,-2.904183 -24.391618,-4.192464 -0.675536,-0.09745 -1.351079,-0.195049 -2.026616,-0.292566 0,0 17.728673,12.84913 17.728673,12.84913 v 0 c 0.65845,0.0911 1.316897,0.1822 1.975362,0.27331 7.932984,1.09323 15.925488,1.87115 23.680204,3.94495 17.142427,4.33027 33.797887,10.13736 50.341697,16.2492 16.08316,5.77733 32.36104,11.04168 48.29914,17.1938 0,0 -17.48356,-13.14433 -17.48356,-13.14433 z" />
    <path
       id="path236"
       style="fill:#000000;stroke-width:0.973505"
       d="M -0.04026254,1.280162 17.743769,14.004698 c 3.050029,0.257019 1.479285,0.113654 4.71226,0.441419 5.760997,0.681029 11.497705,1.866179 17.316285,1.834893 4.833429,-0.0076 9.668972,0.0035 14.500146,0.162732 5.261026,0.231757 10.507936,0.698173 15.686913,1.657204 5.744215,0.93643 11.480728,1.939851 16.933587,4.008326 6.374113,2.354453 12.486354,5.298864 18.89153,7.582734 11.75244,4.70527 23.1653,10.12271 34.69446,15.30759 11.35647,4.61597 22.93828,8.93599 35.06361,11.2525 l -17.7048,-12.88538 c -11.81942,-2.24493 -23.07656,-6.58321 -34.103,-11.1646 C 112.12821,26.866556 100.60988,21.333049 88.692422,16.664456 82.226165,14.274456 76.074818,11.247012 69.555408,8.986341 64.011886,6.961511 58.143644,6.295982 52.360884,5.271667 47.11582,4.308749 41.793963,4.002843 36.471031,3.822086 31.614614,3.676436 26.755441,3.719185 21.897439,3.715461 21.096743,3.716419 20.292967,3.782311 19.494922,3.719061 17.561971,3.566789 15.662487,3.149091 13.74473,2.869886 10.76183,2.43555 7.7818359,2.049171 4.7860306,1.708311 1.4781486,1.3869 3.0853036,1.526213 -0.04026254,1.279983 Z" />
    <circle
       id="path214-9"
       style="fill:#000000;stroke:#000000;stroke-width:0.264583"
       cx="52.115448"
       cy="233.28604"
       r="0.049204119"
       transform="scale(-1,1)" />
  </g>
</svg>
