<?xml version="1.0" encoding="UTF-8" standalone="no"?>
<!-- Created with Inkscape (http://www.inkscape.org/) -->

<svg
   width="112mm"
   height="29mm"
   viewBox="0 0 112 29"
   version="1.1"
   id="svg5"
   xmlns="http://www.w3.org/2000/svg"
   xmlns:svg="http://www.w3.org/2000/svg">
  <defs
     id="defs2" />
  <g
     id="layer1">
    <circle
       id="path214"
       style="fill:#000000;stroke:#000000;stroke-width:0.264583"
       cx="295.15298"
       cy="233.83209"
       r="0.049204119" />
    <path
       style="fill:#000000;stroke-width:0.226045"
       id="path218"
       d="m 52.575479,25.206387 c -4.83596,-1.86153 -9.73538,-3.42413 -14.62799,-5.01405 -2.97772,-0.91771 -5.86747,-2.22497 -8.80649,-3.31588 0,0 3.43661,3.40789 3.43661,3.40789 v 0 c 2.87994,1.04822 5.72432,2.26066 8.64259,3.13087 5.00638,1.58966 9.99941,3.24321 14.91838,5.24269 0,0 -3.5631,-3.45152 -3.5631,-3.45152 z" />
    <path
       style="fill:#000000;stroke-width:0.264583"
       id="path228"
       d="m 48.712629,20.191567 c -5.82025,-1.51636 -11.48926,-3.52876 -17.19651,-5.41139 -3.05553,-1.015684 -6.14851,-1.909544 -9.27224,-2.687917 0,0 4.58273,3.500337 4.58273,3.500337 v 0 c 3.03722,0.72673 6.04463,1.5693 9.0127,2.54327 5.84246,1.91202 11.64281,3.95589 17.55529,5.64742 0,0 -4.68197,-3.59172 -4.68197,-3.59172 z" />
    <path
       style="fill:#000000;stroke-width:0.264583"
       id="path230"
       d="m 46.632549,16.477637 c -4.199,-1.59589 -8.46426,-3.005705 -12.66929,-4.58622 -4.45069,-1.71709 -8.94924,-3.2892966 -13.565,-4.4981836 -2.13698,-0.589896 -4.34181,-0.80237 -6.52136,-1.158298 -0.18061,-0.02694 -0.36122,-0.05389 -0.54184,-0.08083 0,0 4.73995,3.5499696 4.73995,3.5499696 v 0 c 0.17604,0.02516 0.35209,0.05034 0.52813,0.07551 2.12097,0.302041 4.25785,0.516964 6.33116,1.089914 4.58321,1.196372 9.03621,2.800763 13.45938,4.489348 4.3,1.59617 8.65206,3.05061 12.91328,4.75032 0,0 -4.67441,-3.63153 -4.67441,-3.63153 z" />
    <path
       id="path236"
       style="fill:#000000;stroke-width:0.264583"
       d="M 0.32913996,0.17185046 5.083889,3.6873984 c 0.81546,0.07101 0.3955,0.0314 1.25987,0.121956 1.54026,0.188155 3.07403,0.51559 4.62969,0.506946 1.29227,-0.0021 2.5851,9.39e-4 3.87677,0.04496 1.40659,0.06403 2.8094,0.192892 4.19406,0.457854 1.53577,0.258718 3.06949,0.535943 4.52737,1.107425 1.70419,0.650489 3.33836,1.463973 5.05085,2.094963 3.14214,1.29998 6.19349,2.7967146 9.27593,4.2291986 3.03627,1.275306 6.13279,2.468846 9.37462,3.108856 l -4.73356,-3.559991 c -3.16004,-0.620229 -6.16976,-1.818815 -9.1178,-3.0845656 -3.10313,-1.474117 -6.18268,-3.002918 -9.36893,-4.292761 -1.72882,-0.660312 -3.37345,-1.496737 -5.11649,-2.121318 -1.48211,-0.559422 -3.05105,-0.743295 -4.59713,-1.026294 -1.40232,-0.266036 -2.82518,-0.35055199 -4.24832,-0.40049199 -1.29841,-0.04024 -2.59757,-0.02843 -3.8964,-0.02946 -0.21408,2.65e-4 -0.42898,0.01847 -0.64234,0.001 -0.5168,-0.04207 -1.02464,-0.157472 -1.53738,-0.23461095 -0.79751,-0.119989 -1.59424,-0.226738 -2.395199,-0.320911 -0.88439704,-0.0888 -0.454707,-0.05031 -1.29036004,-0.118339 z" />
    <circle
       id="path214-9"
       style="fill:#000000;stroke:#000000;stroke-width:0.264583"
       cx="52.115448"
       cy="233.28604"
       r="0.049204119"
       transform="scale(-1,1)" />
    <path
       style="fill:#000000;stroke-width:0.226045"
       id="path218-8"
       d="m 59.323999,25.399137 c 4.83596,-1.86153 9.73538,-3.42413 14.62799,-5.01405 2.97772,-0.91771 5.86748,-2.22497 8.80649,-3.31589 0,0 -3.4366,3.4079 -3.4366,3.4079 v 0 c -2.87995,1.04822 -5.72433,2.26066 -8.6426,3.13087 -5.00638,1.58966 -9.99941,3.24321 -14.91838,5.24269 0,0 3.5631,-3.45152 3.5631,-3.45152 z" />
    <path
       style="fill:#000000;stroke-width:0.264583"
       id="path228-5"
       d="m 63.186849,20.384317 c 5.82025,-1.51637 11.48926,-3.52876 17.19651,-5.41139 3.05553,-1.015692 6.14851,-1.909552 9.27224,-2.687922 0,0 -4.58272,3.500342 -4.58272,3.500342 v 0 c -3.03723,0.72673 -6.04463,1.5693 -9.01271,2.54327 -5.84246,1.91202 -11.64281,3.95589 -17.55529,5.64742 0,0 4.68197,-3.59172 4.68197,-3.59172 z" />
    <path
       style="fill:#000000;stroke-width:0.264583"
       id="path230-4"
       d="m 65.266929,16.670377 c 4.199,-1.59589 8.46426,-3.005702 12.66929,-4.586212 4.45069,-1.71709 8.94924,-3.2892996 13.56501,-4.4981896 2.13697,-0.58989 4.34181,-0.80237 6.52135,-1.15829 0.18062,-0.0269 0.36123,-0.0539 0.54184,-0.0808 0,0 -4.73995,3.5499696 -4.73995,3.5499696 v 0 c -0.17604,0.0252 -0.35208,0.0503 -0.52813,0.0755 -2.12097,0.30204 -4.25785,0.51696 -6.33115,1.08991 -4.58321,1.19637 -9.03622,2.80076 -13.45939,4.489352 -4.3,1.59617 -8.65206,3.0506 -12.91328,4.75032 0,0 4.67441,-3.63153 4.67441,-3.63154 z" />
    <path
       id="path236-2"
       style="fill:#000000;stroke-width:0.264583"
       d="m 111.57034,0.36459546 -4.75475,3.51554994 c -0.81545,0.071 -0.3955,0.0314 -1.25987,0.12196 -1.54026,0.18815 -3.07403,0.51559 -4.62969,0.50694 -1.292271,-0.002 -2.585101,9.4e-4 -3.876761,0.045 -1.4066,0.064 -2.80941,0.19289 -4.19406,0.45786 -1.53578,0.25871 -3.0695,0.53594 -4.52738,1.10742 -1.70418,0.65049 -3.33836,1.46397 -5.05085,2.09496 -3.14213,1.29998 -6.19349,2.7967196 -9.27593,4.2291996 -3.03627,1.27531 -6.13279,2.468852 -9.37462,3.108862 l 4.73356,-3.559992 c 3.16004,-0.62023 6.16976,-1.81882 9.1178,-3.0845696 3.10313,-1.47412 6.18268,-3.00292 9.36894,-4.29276 1.72882,-0.66031 3.37345,-1.49674 5.11648,-2.12132 1.48212,-0.55942 3.05105,-0.74329 4.59714,-1.02629 1.40232,-0.26604 2.825171,-0.35055 4.248311,-0.40049 1.29842,-0.0402 2.59757,-0.0284 3.89641,-0.0295 0.21407,2.6e-4 0.42897,0.0185 0.64234,10e-4 0.51679,-0.0421 1.02464,-0.15747999 1.53737,-0.23460999 0.79751,-0.11999 1.59424,-0.22673995 2.3952,-0.32091995 0.8844,-0.0888 0.45471,-0.0503 1.29036,-0.11833 z" />
  </g>
</svg>
